<svg width="382" height="48" viewBox="0 0 382 48" fill="none" xmlns="http://www.w3.org/2000/svg">
<rect width="382" height="48" rx="8" fill="#1F8459"/>
<path d="M134.747 29L134.022 26.6211H130.379L129.654 29H127.371L130.898 18.9648H133.489L137.03 29H134.747ZM133.517 24.8438L132.792 22.5195C132.746 22.3646 132.685 22.1663 132.607 21.9248C132.535 21.6787 132.459 21.4303 132.382 21.1797C132.309 20.9245 132.25 20.7035 132.204 20.5166C132.159 20.7035 132.095 20.9359 132.013 21.2139C131.935 21.4873 131.86 21.7471 131.787 21.9932C131.714 22.2393 131.662 22.4147 131.63 22.5195L130.912 24.8438H133.517ZM140.551 29.1367C139.699 29.1367 139.004 28.804 138.466 28.1387C137.933 27.4688 137.666 26.4867 137.666 25.1924C137.666 23.8844 137.937 22.8955 138.479 22.2256C139.022 21.5511 139.73 21.2139 140.605 21.2139C140.97 21.2139 141.291 21.264 141.569 21.3643C141.847 21.4645 142.087 21.599 142.287 21.7676C142.492 21.9362 142.665 22.1253 142.807 22.335H142.875C142.848 22.1891 142.813 21.9749 142.772 21.6924C142.736 21.4053 142.718 21.1113 142.718 20.8105V18.3633H144.81V29H143.21L142.807 28.0088H142.718C142.586 28.2184 142.419 28.4098 142.219 28.583C142.023 28.7516 141.788 28.8861 141.515 28.9863C141.241 29.0866 140.92 29.1367 140.551 29.1367ZM141.282 27.4756C141.852 27.4756 142.253 27.307 142.485 26.9697C142.722 26.6279 142.848 26.1152 142.861 25.4316V25.2061C142.861 24.4632 142.747 23.8958 142.52 23.5039C142.292 23.1074 141.868 22.9092 141.248 22.9092C140.788 22.9092 140.428 23.1074 140.168 23.5039C139.908 23.9004 139.778 24.4723 139.778 25.2197C139.778 25.9671 139.908 26.5299 140.168 26.9082C140.432 27.2865 140.804 27.4756 141.282 27.4756ZM149.075 21.3574V29H146.99V21.3574H149.075ZM148.036 18.3633C148.346 18.3633 148.613 18.4362 148.836 18.582C149.059 18.7233 149.171 18.9899 149.171 19.3818C149.171 19.7692 149.059 20.0381 148.836 20.1885C148.613 20.3343 148.346 20.4072 148.036 20.4072C147.722 20.4072 147.453 20.3343 147.229 20.1885C147.011 20.0381 146.901 19.7692 146.901 19.3818C146.901 18.9899 147.011 18.7233 147.229 18.582C147.453 18.4362 147.722 18.3633 148.036 18.3633ZM154.373 29.1367C153.617 29.1367 152.972 29 152.438 28.7266C151.905 28.4486 151.5 28.0202 151.222 27.4414C150.944 26.8626 150.805 26.1221 150.805 25.2197C150.805 24.2855 150.962 23.5244 151.276 22.9365C151.595 22.3441 152.035 21.9089 152.596 21.6309C153.161 21.3529 153.815 21.2139 154.558 21.2139C155.086 21.2139 155.542 21.2663 155.925 21.3711C156.312 21.4714 156.649 21.5921 156.937 21.7334L156.321 23.3467C155.993 23.2145 155.688 23.1074 155.405 23.0254C155.123 22.9388 154.84 22.8955 154.558 22.8955C154.193 22.8955 153.89 22.9821 153.648 23.1553C153.407 23.3239 153.227 23.5791 153.108 23.9209C152.99 24.2627 152.931 24.6911 152.931 25.2061C152.931 25.7119 152.994 26.1312 153.122 26.4639C153.25 26.7965 153.434 27.0449 153.676 27.209C153.917 27.3685 154.211 27.4482 154.558 27.4482C154.991 27.4482 155.376 27.3913 155.713 27.2773C156.05 27.1589 156.378 26.9948 156.697 26.7852V28.5693C156.378 28.7699 156.043 28.9134 155.692 29C155.346 29.0911 154.906 29.1367 154.373 29.1367ZM160.56 21.3574V29H158.475V21.3574H160.56ZM159.521 18.3633C159.83 18.3633 160.097 18.4362 160.32 18.582C160.544 18.7233 160.655 18.9899 160.655 19.3818C160.655 19.7692 160.544 20.0381 160.32 20.1885C160.097 20.3343 159.83 20.4072 159.521 20.4072C159.206 20.4072 158.937 20.3343 158.714 20.1885C158.495 20.0381 158.386 19.7692 158.386 19.3818C158.386 18.9899 158.495 18.7233 158.714 18.582C158.937 18.4362 159.206 18.3633 159.521 18.3633ZM169.699 25.165C169.699 25.8031 169.613 26.3682 169.439 26.8604C169.271 27.3525 169.022 27.7695 168.694 28.1113C168.371 28.4486 167.979 28.7038 167.519 28.877C167.063 29.0501 166.548 29.1367 165.974 29.1367C165.436 29.1367 164.941 29.0501 164.49 28.877C164.044 28.7038 163.654 28.4486 163.321 28.1113C162.993 27.7695 162.738 27.3525 162.556 26.8604C162.378 26.3682 162.289 25.8031 162.289 25.165C162.289 24.3174 162.439 23.5996 162.74 23.0117C163.041 22.4238 163.469 21.9772 164.025 21.6719C164.581 21.3665 165.244 21.2139 166.015 21.2139C166.73 21.2139 167.364 21.3665 167.915 21.6719C168.471 21.9772 168.906 22.4238 169.221 23.0117C169.54 23.5996 169.699 24.3174 169.699 25.165ZM164.415 25.165C164.415 25.6663 164.47 26.0879 164.579 26.4297C164.688 26.7715 164.859 27.029 165.092 27.2021C165.324 27.3753 165.627 27.4619 166.001 27.4619C166.37 27.4619 166.669 27.3753 166.896 27.2021C167.129 27.029 167.298 26.7715 167.402 26.4297C167.512 26.0879 167.566 25.6663 167.566 25.165C167.566 24.6592 167.512 24.2399 167.402 23.9072C167.298 23.57 167.129 23.3171 166.896 23.1484C166.664 22.9798 166.361 22.8955 165.987 22.8955C165.436 22.8955 165.035 23.0846 164.784 23.4629C164.538 23.8411 164.415 24.4085 164.415 25.165ZM175.763 21.2139C176.578 21.2139 177.235 21.4372 177.731 21.8838C178.228 22.3258 178.477 23.0368 178.477 24.0166V29H176.392V24.5361C176.392 23.9893 176.291 23.5768 176.091 23.2988C175.895 23.0208 175.585 22.8818 175.161 22.8818C174.523 22.8818 174.088 23.0983 173.855 23.5312C173.623 23.9642 173.507 24.5885 173.507 25.4043V29H171.422V21.3574H173.015L173.295 22.335H173.411C173.575 22.0706 173.778 21.8564 174.02 21.6924C174.266 21.5283 174.537 21.4076 174.833 21.3301C175.134 21.2526 175.444 21.2139 175.763 21.2139ZM183.754 21.2002C184.779 21.2002 185.565 21.4235 186.112 21.8701C186.659 22.3167 186.933 22.9958 186.933 23.9072V29H185.477L185.073 27.9609H185.019C184.8 28.2344 184.576 28.4577 184.349 28.6309C184.121 28.804 183.859 28.9316 183.562 29.0137C183.266 29.0957 182.906 29.1367 182.482 29.1367C182.031 29.1367 181.626 29.0501 181.266 28.877C180.91 28.7038 180.63 28.4395 180.425 28.084C180.22 27.724 180.117 27.2682 180.117 26.7168C180.117 25.9056 180.402 25.3086 180.972 24.9258C181.541 24.5384 182.396 24.3242 183.535 24.2832L184.861 24.2422V23.9072C184.861 23.5062 184.757 23.2122 184.547 23.0254C184.337 22.8385 184.046 22.7451 183.672 22.7451C183.303 22.7451 182.94 22.7975 182.585 22.9023C182.229 23.0072 181.874 23.1393 181.519 23.2988L180.828 21.8906C181.234 21.6764 181.687 21.5078 182.188 21.3848C182.694 21.2617 183.216 21.2002 183.754 21.2002ZM184.861 25.459L184.055 25.4863C183.38 25.5046 182.911 25.6253 182.646 25.8486C182.387 26.0719 182.257 26.3659 182.257 26.7305C182.257 27.0495 182.35 27.2773 182.537 27.4141C182.724 27.5462 182.968 27.6123 183.269 27.6123C183.715 27.6123 184.091 27.4801 184.396 27.2158C184.706 26.9515 184.861 26.5755 184.861 26.0879V25.459ZM193.352 21.2139C193.456 21.2139 193.577 21.2207 193.714 21.2344C193.855 21.2435 193.969 21.2572 194.056 21.2754L193.898 23.2305C193.83 23.2077 193.732 23.1917 193.604 23.1826C193.481 23.1689 193.374 23.1621 193.283 23.1621C193.014 23.1621 192.752 23.1963 192.497 23.2646C192.246 23.333 192.021 23.4447 191.82 23.5996C191.62 23.75 191.46 23.9505 191.342 24.2012C191.228 24.4473 191.171 24.7503 191.171 25.1104V29H189.086V21.3574H190.665L190.973 22.6426H191.075C191.226 22.3828 191.412 22.1458 191.636 21.9316C191.864 21.7129 192.121 21.5397 192.408 21.4121C192.7 21.2799 193.014 21.2139 193.352 21.2139ZM201.5 29.1367C200.648 29.1367 199.953 28.804 199.415 28.1387C198.882 27.4688 198.615 26.4867 198.615 25.1924C198.615 23.8844 198.886 22.8955 199.429 22.2256C199.971 21.5511 200.68 21.2139 201.555 21.2139C201.919 21.2139 202.241 21.264 202.519 21.3643C202.797 21.4645 203.036 21.599 203.236 21.7676C203.441 21.9362 203.615 22.1253 203.756 22.335H203.824C203.797 22.1891 203.763 21.9749 203.722 21.6924C203.685 21.4053 203.667 21.1113 203.667 20.8105V18.3633H205.759V29H204.159L203.756 28.0088H203.667C203.535 28.2184 203.368 28.4098 203.168 28.583C202.972 28.7516 202.737 28.8861 202.464 28.9863C202.19 29.0866 201.869 29.1367 201.5 29.1367ZM202.231 27.4756C202.801 27.4756 203.202 27.307 203.435 26.9697C203.672 26.6279 203.797 26.1152 203.811 25.4316V25.2061C203.811 24.4632 203.697 23.8958 203.469 23.5039C203.241 23.1074 202.817 22.9092 202.197 22.9092C201.737 22.9092 201.377 23.1074 201.117 23.5039C200.857 23.9004 200.728 24.4723 200.728 25.2197C200.728 25.9671 200.857 26.5299 201.117 26.9082C201.382 27.2865 201.753 27.4756 202.231 27.4756ZM211.091 21.2139C211.797 21.2139 212.406 21.3506 212.916 21.624C213.426 21.8929 213.821 22.2848 214.099 22.7998C214.377 23.3148 214.516 23.9437 214.516 24.6865V25.6982H209.587C209.61 26.2861 209.785 26.7487 210.113 27.0859C210.446 27.4186 210.906 27.585 211.494 27.585C211.982 27.585 212.428 27.5348 212.834 27.4346C213.24 27.3343 213.657 27.1839 214.085 26.9834V28.5967C213.707 28.7835 213.31 28.9202 212.896 29.0068C212.485 29.0934 211.986 29.1367 211.398 29.1367C210.633 29.1367 209.954 28.9954 209.361 28.7129C208.773 28.4303 208.311 27.9997 207.974 27.4209C207.641 26.8421 207.475 26.113 207.475 25.2334C207.475 24.3402 207.625 23.5973 207.926 23.0049C208.231 22.4079 208.655 21.9613 209.197 21.665C209.74 21.3643 210.371 21.2139 211.091 21.2139ZM211.104 22.6973C210.699 22.6973 210.362 22.8271 210.093 23.0869C209.828 23.3467 209.676 23.7546 209.635 24.3105H212.561C212.556 24.0007 212.499 23.7249 212.39 23.4834C212.285 23.2419 212.125 23.0505 211.911 22.9092C211.701 22.7679 211.433 22.6973 211.104 22.6973ZM221.543 26.7305C221.543 27.25 221.42 27.6898 221.174 28.0498C220.932 28.4053 220.57 28.6764 220.087 28.8633C219.604 29.0456 219.002 29.1367 218.282 29.1367C217.749 29.1367 217.291 29.1025 216.908 29.0342C216.53 28.9658 216.147 28.8519 215.76 28.6924V26.9697C216.174 27.1566 216.619 27.3115 217.093 27.4346C217.571 27.5531 217.991 27.6123 218.351 27.6123C218.756 27.6123 219.046 27.5531 219.219 27.4346C219.396 27.3115 219.485 27.152 219.485 26.9561C219.485 26.8285 219.449 26.7145 219.376 26.6143C219.308 26.5094 219.157 26.3932 218.925 26.2656C218.692 26.1335 218.328 25.9626 217.831 25.7529C217.353 25.5524 216.958 25.3496 216.648 25.1445C216.343 24.9395 216.115 24.6979 215.965 24.4199C215.819 24.1374 215.746 23.7796 215.746 23.3467C215.746 22.6403 216.02 22.1094 216.566 21.7539C217.118 21.3939 217.854 21.2139 218.774 21.2139C219.248 21.2139 219.7 21.2617 220.128 21.3574C220.561 21.4531 221.005 21.6058 221.461 21.8154L220.832 23.3193C220.454 23.1553 220.096 23.0208 219.759 22.916C219.426 22.8112 219.087 22.7588 218.74 22.7588C218.435 22.7588 218.205 22.7998 218.05 22.8818C217.895 22.9639 217.817 23.0892 217.817 23.2578C217.817 23.3809 217.856 23.4902 217.934 23.5859C218.016 23.6816 218.171 23.7887 218.398 23.9072C218.631 24.0212 218.97 24.1693 219.417 24.3516C219.85 24.5293 220.226 24.7161 220.545 24.9121C220.864 25.1035 221.11 25.3428 221.283 25.6299C221.456 25.9124 221.543 26.2793 221.543 26.7305ZM227.422 21.2139C228.283 21.2139 228.978 21.5488 229.507 22.2188C230.04 22.8887 230.307 23.8708 230.307 25.165C230.307 26.0309 230.181 26.7601 229.931 27.3525C229.68 27.9404 229.334 28.3848 228.892 28.6855C228.45 28.9863 227.941 29.1367 227.367 29.1367C226.998 29.1367 226.681 29.0911 226.417 29C226.153 28.9043 225.927 28.7835 225.74 28.6377C225.553 28.4873 225.392 28.3278 225.255 28.1592H225.146C225.182 28.3415 225.209 28.5283 225.228 28.7197C225.246 28.9111 225.255 29.098 225.255 29.2803V32.3633H223.17V21.3574H224.865L225.159 22.3486H225.255C225.392 22.1436 225.558 21.9544 225.754 21.7812C225.95 21.6081 226.185 21.4714 226.458 21.3711C226.736 21.2663 227.057 21.2139 227.422 21.2139ZM226.752 22.8818C226.387 22.8818 226.098 22.957 225.884 23.1074C225.67 23.2578 225.512 23.4834 225.412 23.7842C225.316 24.085 225.264 24.4655 225.255 24.9258V25.1514C225.255 25.6436 225.3 26.0605 225.392 26.4023C225.487 26.7441 225.645 27.0039 225.863 27.1816C226.087 27.3594 226.392 27.4482 226.779 27.4482C227.098 27.4482 227.36 27.3594 227.565 27.1816C227.771 27.0039 227.923 26.7441 228.023 26.4023C228.128 26.056 228.181 25.6344 228.181 25.1377C228.181 24.3903 228.064 23.8275 227.832 23.4492C227.6 23.071 227.24 22.8818 226.752 22.8818ZM235.181 21.2139C235.887 21.2139 236.495 21.3506 237.006 21.624C237.516 21.8929 237.91 22.2848 238.188 22.7998C238.466 23.3148 238.605 23.9437 238.605 24.6865V25.6982H233.677C233.7 26.2861 233.875 26.7487 234.203 27.0859C234.536 27.4186 234.996 27.585 235.584 27.585C236.072 27.585 236.518 27.5348 236.924 27.4346C237.329 27.3343 237.746 27.1839 238.175 26.9834V28.5967C237.797 28.7835 237.4 28.9202 236.985 29.0068C236.575 29.0934 236.076 29.1367 235.488 29.1367C234.723 29.1367 234.044 28.9954 233.451 28.7129C232.863 28.4303 232.401 27.9997 232.063 27.4209C231.731 26.8421 231.564 26.113 231.564 25.2334C231.564 24.3402 231.715 23.5973 232.016 23.0049C232.321 22.4079 232.745 21.9613 233.287 21.665C233.829 21.3643 234.461 21.2139 235.181 21.2139ZM235.194 22.6973C234.789 22.6973 234.451 22.8271 234.183 23.0869C233.918 23.3467 233.766 23.7546 233.725 24.3105H236.65C236.646 24.0007 236.589 23.7249 236.479 23.4834C236.375 23.2419 236.215 23.0505 236.001 22.9092C235.791 22.7679 235.522 22.6973 235.194 22.6973ZM245.633 26.7305C245.633 27.25 245.51 27.6898 245.264 28.0498C245.022 28.4053 244.66 28.6764 244.177 28.8633C243.694 29.0456 243.092 29.1367 242.372 29.1367C241.839 29.1367 241.381 29.1025 240.998 29.0342C240.62 28.9658 240.237 28.8519 239.85 28.6924V26.9697C240.264 27.1566 240.709 27.3115 241.183 27.4346C241.661 27.5531 242.08 27.6123 242.44 27.6123C242.846 27.6123 243.135 27.5531 243.309 27.4346C243.486 27.3115 243.575 27.152 243.575 26.9561C243.575 26.8285 243.539 26.7145 243.466 26.6143C243.397 26.5094 243.247 26.3932 243.015 26.2656C242.782 26.1335 242.418 25.9626 241.921 25.7529C241.442 25.5524 241.048 25.3496 240.738 25.1445C240.433 24.9395 240.205 24.6979 240.055 24.4199C239.909 24.1374 239.836 23.7796 239.836 23.3467C239.836 22.6403 240.109 22.1094 240.656 21.7539C241.208 21.3939 241.944 21.2139 242.864 21.2139C243.338 21.2139 243.789 21.2617 244.218 21.3574C244.651 21.4531 245.095 21.6058 245.551 21.8154L244.922 23.3193C244.544 23.1553 244.186 23.0208 243.849 22.916C243.516 22.8112 243.176 22.7588 242.83 22.7588C242.525 22.7588 242.295 22.7998 242.14 22.8818C241.985 22.9639 241.907 23.0892 241.907 23.2578C241.907 23.3809 241.946 23.4902 242.023 23.5859C242.105 23.6816 242.26 23.7887 242.488 23.9072C242.721 24.0212 243.06 24.1693 243.507 24.3516C243.94 24.5293 244.316 24.7161 244.635 24.9121C244.954 25.1035 245.2 25.3428 245.373 25.6299C245.546 25.9124 245.633 26.2793 245.633 26.7305ZM250.391 21.2002C251.416 21.2002 252.202 21.4235 252.749 21.8701C253.296 22.3167 253.569 22.9958 253.569 23.9072V29H252.113L251.71 27.9609H251.655C251.437 28.2344 251.213 28.4577 250.985 28.6309C250.757 28.804 250.495 28.9316 250.199 29.0137C249.903 29.0957 249.543 29.1367 249.119 29.1367C248.668 29.1367 248.262 29.0501 247.902 28.877C247.547 28.7038 247.267 28.4395 247.062 28.084C246.856 27.724 246.754 27.2682 246.754 26.7168C246.754 25.9056 247.039 25.3086 247.608 24.9258C248.178 24.5384 249.033 24.3242 250.172 24.2832L251.498 24.2422V23.9072C251.498 23.5062 251.393 23.2122 251.184 23.0254C250.974 22.8385 250.682 22.7451 250.309 22.7451C249.939 22.7451 249.577 22.7975 249.222 22.9023C248.866 23.0072 248.511 23.1393 248.155 23.2988L247.465 21.8906C247.87 21.6764 248.324 21.5078 248.825 21.3848C249.331 21.2617 249.853 21.2002 250.391 21.2002ZM251.498 25.459L250.691 25.4863C250.017 25.5046 249.548 25.6253 249.283 25.8486C249.023 26.0719 248.894 26.3659 248.894 26.7305C248.894 27.0495 248.987 27.2773 249.174 27.4141C249.361 27.5462 249.604 27.6123 249.905 27.6123C250.352 27.6123 250.728 27.4801 251.033 27.2158C251.343 26.9515 251.498 26.5755 251.498 26.0879V25.459Z" fill="white"/>
</svg>
